<svg xmlns="http://www.w3.org/2000/svg" width="1600" height="900" viewBox="0 0 1600 900">
  <defs>
    <linearGradient id="bg7" x1="0" y1="0" x2="1" y2="1">
      <stop offset="0" stop-color="#040615"/>
      <stop offset="0.55" stop-color="#0B0F1A"/>
      <stop offset="1" stop-color="#120520"/>
    </linearGradient>
    <filter id="glow" x="-30%" y="-30%" width="160%" height="160%">
      <feGaussianBlur stdDeviation="5" result="b"/>
      <feMerge>
        <feMergeNode in="b"/>
        <feMergeNode in="SourceGraphic"/>
      </feMerge>
    </filter>
  </defs>
  <rect width="1600" height="900" fill="url(#bg7)"/>

  <!-- Glitch panels -->
  <g opacity="0.22">
    <rect x="120" y="210" width="560" height="18" fill="#00F0FF"/>
    <rect x="220" y="268" width="980" height="10" fill="#FF3AF2"/>
    <rect x="420" y="330" width="860" height="14" fill="#00F0FF"/>
    <rect x="160" y="560" width="1040" height="12" fill="#FF3AF2"/>
    <rect x="300" y="620" width="920" height="16" fill="#00F0FF"/>
  </g>

  <!-- Mantra -->
  <g font-family="JetBrains Mono, monospace" font-size="64" filter="url(#glow)">
    <text x="240" y="420" fill="#00F0FF" fill-opacity="0.9">A D A P T</text>
    <text x="240" y="510" fill="#FF3AF2" fill-opacity="0.75">A D A P T</text>
    <text x="240" y="600" fill="#00F0FF" fill-opacity="0.85">A D A P T</text>
  </g>

  <!-- Fox mark -->
  <g transform="translate(1230 650)" filter="url(#glow)" opacity="0.75">
    <path d="M40 0 L58 22 L80 6 L74 36 L96 56 L70 56 L62 82 L46 60 L24 72 L30 48 L12 32 L38 30 Z" fill="#FF3AF2" fill-opacity="0.32"/>
    <path d="M44 8 L56 22 L72 12 L68 34 L82 48 L66 48 L60 64 L48 50 L34 58 L38 42 L26 32 L42 30 Z" fill="#00F0FF" fill-opacity="0.18"/>
  </g>
</svg>
